# xmcd
#
# Track frame offsets:
#	150
#	31594
#	46967
#	141219
#	151418
#	193754
#	219315
#	248687
#
# Disc length: 3910 seconds
#
# Revision: 1
# Processed by: cddbd v1.5.2PL0 Copyright (c) Steve Scherf et al.
# Submitted via: audiograbber 1.83.01
#
DISCID=640f4408
DTITLE=Grateful Dead - 74-05-12 University of Nevada, Reno NV
DYEAR=1900
DGENRE=
TTITLE0=Truckin'
TTITLE1=Nobody's Fault But Mine Jam
TTITLE2=The Other One
TTITLE3=Mind Left Body Jam
TTITLE4=Row Jimmy
TTITLE5=Big River
TTITLE6=Ship Of Fools
TTITLE7=Sugar Magnolia
EXTD=
EXTT0=
EXTT1=
EXTT2=
EXTT3=
EXTT4=
EXTT5=
EXTT6=
EXTT7=
PLAYORDER=
